<svg width="144" height="30" viewBox="0 0 144 30" fill="none" xmlns="http://www.w3.org/2000/svg">
<path d="M17.3878 14.2663V23.7249H10.9597V21.4075C10.1634 23.1782 8.57294 24.0466 6.21404 24.0466C2.11273 24.0466 0 21.601 0 18.5771C0 15.1663 2.4488 13.2674 7.6525 13.2674H10.4374C10.2233 11.9152 9.24293 11.2087 7.28432 11.2087C6.0642 11.2087 4.72421 11.5485 3.6732 12.1424C3.29432 12.3562 2.8234 12.2099 2.63717 11.8027L1.09811 8.4571C0.922582 8.07462 1.06814 7.61565 1.42561 7.4199C3.3564 6.37146 5.98928 5.80225 8.32463 5.80225C14.0806 5.8045 17.3878 8.41212 17.3878 14.2663ZM10.4695 17.9989V16.7772H8.75489C7.28646 16.7772 6.64215 17.2924 6.64215 18.2576C6.64215 19.0631 7.25435 19.6728 8.29467 19.6728C9.24508 19.6728 10.1013 19.1576 10.4695 17.9989Z" fill="#8CAB91"/>
<path d="M20.4785 0C24.2994 0 27.3968 3.25558 27.3968 7.27163V23.8736H20.4785V0Z" fill="#8CAB91"/>
<path d="M106.298 13.974V23.4326H99.8698V21.1152C99.0735 22.8859 97.4831 23.7543 95.1242 23.7543C91.0229 23.7543 88.9102 21.3087 88.9102 18.2848C88.9102 14.874 91.359 12.9751 96.5627 12.9751H99.3475C99.1335 11.6229 98.1531 10.9164 96.1945 10.9164C95.0771 10.9164 93.8591 11.2022 92.8552 11.7062C92.3051 11.9829 91.6437 11.7242 91.3782 11.1459L90.1709 8.52031C89.9012 7.93084 90.1346 7.21987 90.6975 6.94313C92.5876 6.01393 95.0429 5.51221 97.2348 5.51221C102.991 5.51221 106.298 8.11983 106.298 13.974ZM99.3796 17.7066V16.4849H97.665C96.1966 16.4849 95.5523 17.0001 95.5523 17.9653C95.5523 18.7708 96.1645 19.3805 97.2048 19.3805C98.1531 19.3805 99.0114 18.8653 99.3796 17.7066Z" fill="#8CAB91"/>
<path d="M127.723 5.83643L120.835 23.7906C118.998 28.6166 116.303 30.0003 112.754 30.0003C110.917 30.0003 108.805 29.3883 107.672 28.4231L109.969 23.4351C110.643 23.9818 111.592 24.3688 112.418 24.3688C113.244 24.3688 113.764 24.1123 114.133 23.6601L107.092 5.83643H108.854C112.071 5.83643 114.959 7.91758 116.117 11.0742L117.654 15.2635L119.597 10.0617C120.55 7.5126 122.89 5.83643 125.495 5.83643H127.723Z" fill="#8CAB91"/>
<path d="M128.059 20.7057L128.862 18.6786C129.159 17.9294 129.973 17.5649 130.687 17.8686C132.1 18.4671 133.772 18.8 135.283 18.8C136.968 18.8 137.426 18.4783 137.426 17.9631C137.426 16.1609 127.783 18.5751 127.783 11.5284C127.783 8.21432 130.722 5.51221 136.354 5.51221C138.224 5.51221 140.185 5.79345 141.797 6.35817C142.568 6.62816 142.953 7.53486 142.64 8.32232L141.842 10.3405C141.549 11.0829 140.746 11.4294 140.029 11.1437C138.747 10.633 137.509 10.4665 136.446 10.4665C134.671 10.4665 134.181 10.8849 134.181 11.3034C134.181 13.1371 143.792 10.7567 143.792 17.8034C143.792 20.9892 140.945 23.7566 135.129 23.7566C132.897 23.7566 130.589 23.3313 128.868 22.6586C128.121 22.3661 127.753 21.4819 128.059 20.7057Z" fill="#8CAB91"/>
<path d="M66.8755 11.1842C67.6846 9.55526 68.3204 7.91508 69.4506 6.5944C70.8077 5.00822 72.9333 5.31872 74.0357 7.22888C75.7074 10.12 77.3385 13.0359 79.0531 15.8977C79.4941 16.6334 80.1106 17.3039 80.772 17.8259C81.7567 18.6043 82.752 18.4648 83.6939 17.6279C83.8501 17.4884 84.0021 17.3466 84.2418 17.2701C84.0021 17.7809 83.7645 18.2938 83.5226 18.8046C83.0132 19.8823 82.5337 20.978 81.9836 22.0309C80.924 24.0536 78.4944 24.5823 76.8034 23.1716C76.5487 22.9601 76.3346 22.6654 76.1655 22.3707C74.2305 18.9936 72.3082 15.6075 70.3753 12.2281C70.1827 11.8929 69.9515 11.5734 69.6989 11.2877C68.8812 10.363 67.8409 10.237 67.1217 11.1077C67.096 11.1414 67.0253 11.1392 66.8755 11.1842Z" fill="#8CAB91"/>
<path d="M72.3317 17.1867C72.2868 17.3599 72.2718 17.4701 72.2268 17.5669C71.5633 18.9798 70.8975 20.3905 70.2233 21.8012C69.2429 23.8553 66.9953 24.5843 65.2229 23.3896C64.8719 23.1534 64.5401 22.8091 64.3239 22.4334C62.879 19.9338 61.4534 17.4206 60.0214 14.912C59.8565 15.2113 59.6939 15.5127 59.5333 15.8165C58.9254 14.1583 58.0692 12.8511 56.9497 11.7509C56.5965 11.4044 56.3225 11.004 56.1277 10.5742C55.9736 10.2322 55.8708 9.87226 55.8237 9.50778C55.6931 8.54482 55.935 7.54362 56.5793 6.7449C57.8102 5.21948 59.9036 5.0035 61.3721 6.24994C61.8237 6.63242 62.1748 7.12288 62.3931 7.66736C63.8358 10.1445 65.2443 12.6419 66.6913 15.1145C67.1216 15.8525 67.5754 16.6017 68.1426 17.2227C69.4698 18.6761 70.6878 18.6716 72.1091 17.3239C72.1519 17.2856 72.2076 17.2632 72.3317 17.1867Z" fill="#8CAB91"/>
<path d="M84.9012 16.451C84.3104 14.8356 83.4777 13.5644 82.3882 12.4934C81.0482 11.1795 80.8641 9.06234 82.0264 7.62241C83.2251 6.13748 85.263 5.92823 86.6907 7.14093C87.8231 8.10163 88.3004 9.7463 87.6261 11.2447C86.8234 13.0311 85.8174 14.7186 84.9012 16.451Z" fill="#8CAB91"/>
<path d="M41.0107 10.4059C41.8434 8.73194 42.4963 7.04678 43.6565 5.68785C45.05 4.05668 47.2333 4.37616 48.3678 6.33807C50.0846 9.30792 51.7628 12.3048 53.5244 15.2454C53.9761 16.0013 54.6097 16.6898 55.2904 17.2275C56.3029 18.0262 57.3261 17.8845 58.2936 17.025C58.4542 16.8833 58.6104 16.7348 58.8587 16.6561C58.6126 17.1825 58.3685 17.709 58.1202 18.2332C57.5958 19.3402 57.1056 20.4651 56.5384 21.5473C55.4509 23.6262 52.9529 24.1684 51.2148 22.7195C50.9536 22.5013 50.7332 22.1998 50.5598 21.896C48.5712 18.4245 46.5976 14.9461 44.609 11.4746C44.4121 11.1303 44.1745 10.8018 43.9133 10.5071C43.0721 9.55539 42.004 9.42716 41.2655 10.3226C41.2355 10.3631 41.1649 10.3609 41.0107 10.4059Z" fill="#8CAB91"/>
<path d="M28.9253 10.3858C29.6766 8.65112 30.3252 6.86019 31.6203 5.5035C32.9774 4.07932 35.043 4.46181 36.1197 6.29997C37.7037 9.00659 39.2385 11.7425 40.8225 14.4468C41.2656 15.205 41.7323 15.9745 42.3145 16.6112C43.6802 18.1051 44.9324 18.1007 46.3923 16.717C46.4351 16.6765 46.4929 16.654 46.6213 16.5752C46.5742 16.753 46.5592 16.8677 46.5121 16.9645C45.8293 18.4156 45.1443 19.8691 44.4529 21.3157C43.4447 23.4284 41.135 24.1754 39.3134 22.9492C38.9517 22.7062 38.6113 22.3507 38.3887 21.966C36.4515 18.6136 34.5485 15.2388 32.6199 11.8819C32.3181 11.3577 31.9756 10.8402 31.571 10.4015C30.7726 9.53081 30.0063 9.51957 29.1072 10.2688C29.0537 10.316 28.9852 10.3475 28.9253 10.3858Z" fill="#8CAB91"/>
</svg>
