<svg width="18" height="15" viewBox="0 0 18 15" fill="none" xmlns="http://www.w3.org/2000/svg">
<path d="M1.87317 15C1.48189 15 1.15521 14.8715 0.893125 14.6146C0.631042 14.3576 0.5 14.0374 0.5 13.6538V4.67958C0.5 4.29597 0.631042 3.97569 0.893125 3.71875C1.15521 3.46181 1.48189 3.33333 1.87317 3.33333H4.38705L5.95955 1.66667H10.3732V2.5H6.32739L4.75977 4.16667H1.87317C1.7206 4.16667 1.59522 4.21472 1.49705 4.31083C1.39902 4.40708 1.35 4.53 1.35 4.67958V13.6538C1.35 13.8033 1.39902 13.9263 1.49705 14.0225C1.59522 14.1186 1.7206 14.1667 1.87317 14.1667H14.4268C14.5794 14.1667 14.7048 14.1186 14.803 14.0225C14.901 13.9263 14.95 13.8033 14.95 13.6538V6.98708H15.8V13.6538C15.8 14.0374 15.669 14.3576 15.4069 14.6146C15.1448 14.8715 14.8181 15 14.4268 15H1.87317ZM14.95 4.16667V2.5H13.25V1.66667H14.95V0H15.8V1.66667H17.5V2.5H15.8V4.16667H14.95ZM8.15 12.2756C9.03811 12.2756 9.78866 11.9751 10.4017 11.3742C11.0146 10.7732 11.3211 10.0374 11.3211 9.16667C11.3211 8.29597 11.0146 7.56014 10.4017 6.95917C9.78866 6.35819 9.03811 6.05771 8.15 6.05771C7.26189 6.05771 6.51134 6.35819 5.89835 6.95917C5.28536 7.56014 4.97886 8.29597 4.97886 9.16667C4.97886 10.0374 5.28536 10.7732 5.89835 11.3742C6.51134 11.9751 7.26189 12.2756 8.15 12.2756ZM8.15 11.4423C7.48955 11.4423 6.93762 11.2249 6.4942 10.79C6.05064 10.3553 5.82886 9.81417 5.82886 9.16667C5.82886 8.51917 6.05064 7.97806 6.4942 7.54333C6.93762 7.10847 7.48955 6.89104 8.15 6.89104C8.81045 6.89104 9.36238 7.10847 9.8058 7.54333C10.2494 7.97806 10.4711 8.51917 10.4711 9.16667C10.4711 9.81417 10.2494 10.3553 9.8058 10.79C9.36238 11.2249 8.81045 11.4423 8.15 11.4423Z" fill="#8CAB91"/>
</svg>
