<svg width="23" height="22" viewBox="0 0 23 22" fill="none" xmlns="http://www.w3.org/2000/svg">
<path d="M5.39872 4.89886C2.0292 8.26837 2.0292 13.7316 5.39872 17.1013C8.76823 20.4708 14.2316 20.4708 17.6011 17.1013C20.9709 13.7316 20.9709 8.26837 17.6011 4.89886C14.2316 1.52935 8.76823 1.52935 5.39872 4.89886Z" fill="#7EAD91"/>
<path d="M18.5711 3.92896C14.6658 0.0236777 8.33406 0.0236777 4.42877 3.92896C0.523701 7.83425 0.523701 14.166 4.42877 18.071C8.33406 21.9763 14.6658 21.9763 18.5711 18.071C22.4763 14.166 22.4763 7.83425 18.5711 3.92896Z" stroke="#7EAD91" stroke-width="2" stroke-miterlimit="10"/>
<path d="M16.7674 9.41214C16.7344 9.60792 16.7099 9.80561 16.6667 9.99904C16.5163 10.6716 16.1788 11.2414 15.6946 11.7265C14.2805 13.1423 12.8628 14.5543 11.4521 15.9733C11.1581 16.2692 10.7461 16.1789 10.6008 15.8847C10.5052 15.6917 10.5235 15.5059 10.6569 15.335C10.6903 15.2924 10.7293 15.2541 10.7676 15.2157C12.1619 13.821 13.5556 12.4259 14.9514 11.0327C15.3193 10.6654 15.5847 10.2404 15.6874 9.72764C15.8708 8.8099 15.6377 8.0072 14.9684 7.35192C14.4141 6.80975 13.732 6.58415 12.9616 6.65232C12.3471 6.70707 11.823 6.96825 11.3869 7.40432C9.96388 8.82673 8.53934 10.2472 7.11991 11.6728C6.28994 12.5062 6.60097 13.8651 7.70489 14.2228C8.25068 14.3996 8.74853 14.284 9.18631 13.9135C9.22508 13.8807 9.26109 13.8447 9.29688 13.8089C10.5838 12.5222 11.8697 11.2346 13.1579 9.94919C13.3127 9.79432 13.3958 9.62219 13.3338 9.40192C13.2362 9.05617 12.8245 8.91983 12.5392 9.13882C12.4962 9.17184 12.4576 9.2104 12.4191 9.24875C11.5908 10.0764 10.7632 10.9046 9.9349 11.7321C9.71676 11.95 9.43748 11.9745 9.22189 11.7987C9.01248 11.6281 8.97307 11.3228 9.13412 11.1062C9.1599 11.0714 9.19015 11.0395 9.22061 11.0088C10.0614 10.1678 10.901 9.32608 11.7433 8.48716C12.2755 7.95714 13.0332 7.86404 13.6561 8.2458C14.4529 8.73428 14.6146 9.85738 13.9874 10.5506C13.9461 10.5962 13.9035 10.6407 13.86 10.6844C12.5861 11.9583 11.3102 13.2303 10.0393 14.5072C9.59917 14.9492 9.08171 15.2328 8.45966 15.2986C7.74175 15.3747 7.08817 15.1925 6.5394 14.7183C5.79997 14.0788 5.51643 13.2608 5.67876 12.2989C5.76738 11.7736 6.02387 11.3281 6.40093 10.9513C7.82419 9.5291 9.24575 8.10562 10.6692 6.68406C11.1882 6.16597 11.8043 5.81682 12.5279 5.69134C13.828 5.46595 14.9439 5.83066 15.8463 6.79974C16.3878 7.38132 16.6782 8.0807 16.7513 8.87104C16.7538 8.89938 16.7619 8.92728 16.7674 8.9554V9.41214Z" fill="white"/>
</svg>
