<svg width="26" height="26" viewBox="0 0 26 26" fill="none" xmlns="http://www.w3.org/2000/svg">
<path d="M21.4854 4.51457C16.7991 -0.171762 9.20108 -0.171762 4.51475 4.51457C-0.171583 9.2009 -0.171583 16.7989 4.51475 21.485C9.20108 26.1713 16.7991 26.1713 21.4854 21.485C26.1715 16.7989 26.1715 9.2009 21.4854 4.51457Z" stroke="#8CAB91" stroke-width="2" stroke-miterlimit="10"/>
<path d="M5.75814 5.75817C1.71473 9.80158 1.71473 16.3574 5.75814 20.401C9.80155 24.4444 16.3576 24.4444 20.401 20.401C24.4447 16.3574 24.4447 9.80158 20.401 5.75817C16.3576 1.71477 9.80155 1.71477 5.75814 5.75817Z" fill="#8CAB91"/>
<path d="M8.5 17.5L17.5 8.5M8.5 8.5L17.5 17.5" stroke="white" stroke-width="1.5" stroke-linecap="round" stroke-linejoin="round"/>
</svg>
