<svg width="35" height="34" viewBox="0 0 35 34" fill="none" xmlns="http://www.w3.org/2000/svg">
<path d="M28.814 5.68593C22.5655 -0.562514 12.4348 -0.562514 6.18639 5.68593C-0.0620494 11.9344 -0.0620494 22.0651 6.18639 28.3132C12.4348 34.5616 22.5655 34.5616 28.814 28.3132C35.0621 22.0651 35.0621 11.9344 28.814 5.68593Z" stroke="#FF3B30" stroke-width="2" stroke-miterlimit="10"/>
<path d="M7.84425 7.34439C2.45304 12.7356 2.45304 21.4767 7.84425 26.8682C13.2355 32.2594 21.9769 32.2594 27.3681 26.8682C32.7596 21.4767 32.7596 12.7356 27.3681 7.34439C21.9769 1.95319 13.2355 1.95319 7.84425 7.34439Z" fill="#FF3B30"/>
<path d="M11.5001 23L23.5001 11M11.5001 11L23.5001 23" stroke="white" stroke-width="1.5" stroke-linecap="round" stroke-linejoin="round"/>
</svg>
