<svg width="38" height="38" viewBox="0 0 38 38" fill="none" xmlns="http://www.w3.org/2000/svg">
<path d="M29.9822 30.1138C36.0473 24.049 36.0473 14.2149 29.9822 8.14978C23.9171 2.08427 14.0829 2.08427 8.01782 8.14978C1.95231 14.2149 1.95231 24.049 8.01782 30.1138C14.0829 36.1789 23.9171 36.1789 29.9822 30.1138Z" fill="#7EAD91"/>
<path d="M31.728 6.27214C24.6984 -0.757379 13.3014 -0.757379 6.27185 6.27214C-0.757283 13.3017 -0.757283 24.6987 6.27185 31.7279C13.3014 38.7574 24.6984 38.7574 31.728 31.7279C38.7575 24.6987 38.7575 13.3017 31.728 6.27214Z" stroke="#7EAD91" stroke-width="2" stroke-miterlimit="10"/>
<path d="M14.1531 30.4526C14.1155 30.4323 14.0794 30.4105 14.0407 30.3932C13.6415 30.2164 13.421 29.828 13.4904 29.4234C13.5602 29.02 13.9211 28.7075 14.359 28.7041C15.4288 28.696 16.4987 28.701 17.5685 28.7002H17.848V26.8957C17.539 26.8359 17.2245 26.7895 16.9174 26.7143C14.2478 26.0598 12.4379 24.4002 11.3711 21.9058C10.9792 20.9886 10.8427 20.0088 10.8469 19.0111C10.8492 18.4616 10.845 17.9117 10.8477 17.3618C10.8507 16.8074 11.2146 16.4105 11.7166 16.4082C12.2285 16.4059 12.5912 16.8054 12.5966 17.3749C12.6043 18.08 12.5912 18.7868 12.6273 19.4908C12.707 21.0465 13.3428 22.3629 14.464 23.4273C16.3714 25.238 18.6188 25.6805 21.0311 24.7292C23.1489 23.8944 24.4684 22.2689 24.8009 19.9766C24.9278 19.1008 24.871 18.1989 24.8956 17.3089C24.9105 16.7679 25.322 16.3748 25.8412 16.4105C26.2419 16.4377 26.6299 16.7863 26.6338 17.1831C26.6438 18.2664 26.7143 19.3539 26.5329 20.4299C26.3259 21.6592 25.8381 22.7732 25.0777 23.7617C24.2161 24.8826 23.1585 25.7603 21.8456 26.3121C21.2263 26.5721 20.5848 26.7477 19.9202 26.8409C19.8324 26.8531 19.745 26.8704 19.643 26.888V28.7002H19.9007C20.9636 28.7006 22.0258 28.696 23.0884 28.7025C23.6447 28.7056 24.0351 29.1025 24.0075 29.6236C23.9891 29.9653 23.8069 30.2042 23.5109 30.3633C23.4542 30.3936 23.3963 30.4227 23.3391 30.4526H14.1531Z" fill="white"/>
<path d="M14.371 15.512C14.371 14.2574 14.3449 13.0015 14.3771 11.7473C14.4281 9.75674 16.0885 7.94452 18.0621 7.67649C20.0994 7.40002 21.9082 8.38626 22.7698 10.2483C23.0229 10.7959 23.1307 11.3768 23.1303 11.9777C23.1295 14.3916 23.1567 16.8058 23.1146 19.2185C23.0797 21.2144 21.6678 22.8686 19.7145 23.3234C17.3428 23.8756 14.8829 22.2831 14.4373 19.8961C14.3752 19.5625 14.3629 19.217 14.3599 18.8765C14.3507 17.7552 14.3564 16.6336 14.3564 15.512H14.371Z" fill="white"/>
</svg>
