<svg width="29" height="30" viewBox="0 0 29 30" fill="none" xmlns="http://www.w3.org/2000/svg">
<path d="M5.75 13.5L14 0L22.25 13.5H5.75ZM22.25 30C20.375 30 18.7815 29.344 17.4695 28.032C16.1575 26.72 15.501 25.126 15.5 23.25C15.499 21.374 16.1555 19.7805 17.4695 18.4695C18.7835 17.1585 20.377 16.502 22.25 16.5C24.123 16.498 25.717 17.1545 27.032 18.4695C28.347 19.7845 29.003 21.378 29 23.25C28.997 25.122 28.341 26.716 27.032 28.032C25.723 29.348 24.129 30.004 22.25 30ZM0.5 29.25V17.25H12.5V29.25H0.5ZM22.25 27C23.3 27 24.1875 26.6375 24.9125 25.9125C25.6375 25.1875 26 24.3 26 23.25C26 22.2 25.6375 21.3125 24.9125 20.5875C24.1875 19.8625 23.3 19.5 22.25 19.5C21.2 19.5 20.3125 19.8625 19.5875 20.5875C18.8625 21.3125 18.5 22.2 18.5 23.25C18.5 24.3 18.8625 25.1875 19.5875 25.9125C20.3125 26.6375 21.2 27 22.25 27ZM3.5 26.25H9.5V20.25H3.5V26.25ZM11.075 10.5H16.925L14 5.775L11.075 10.5Z" fill="#8CAB91"/>
</svg>
