<svg width="32" height="32" viewBox="0 0 32 32" fill="none" xmlns="http://www.w3.org/2000/svg">
<path d="M6.5335 6.84805C1.47923 11.9023 1.47923 20.0971 6.5335 25.1517C11.5878 30.206 19.7829 30.206 24.8371 25.1517C29.8917 20.0971 29.8917 11.9023 24.8371 6.84805C19.7829 1.79378 11.5878 1.79378 6.5335 6.84805Z" fill="#7EAD91"/>
<path d="M5.07887 26.6066C10.9368 32.4645 20.4344 32.4645 26.2923 26.6066C32.1502 20.7486 32.1502 11.2514 26.2923 5.39345C20.4344 -0.464483 10.9368 -0.464483 5.07887 5.39345C-0.779058 11.2514 -0.779058 20.7486 5.07887 26.6066Z" stroke="#7EAD91" stroke-miterlimit="10"/>
<path d="M17.2872 14.1816C17.7687 13.7004 18.2573 13.2118 18.7347 12.7344C18.5778 12.5762 18.4104 12.4069 18.2557 12.2509C17.7745 12.7322 17.2859 13.2207 16.8082 13.6985C16.9651 13.857 17.1332 14.0263 17.2872 14.1816ZM7.00513 21.8495C7.05498 21.8105 7.10962 21.7763 7.15403 21.7319C10.9062 17.9814 14.6576 14.2299 18.4081 10.4781C18.4542 10.4321 18.4922 10.3784 18.521 10.3435C19.2345 11.0561 19.9286 11.7499 20.6111 12.4318L9.07739 23.9658C8.39835 23.2826 7.70174 22.5825 7.00513 21.8821V21.8495Z" fill="white"/>
<path d="M14.3574 7.51542C14.653 9.10453 15.5822 10.0315 17.1739 10.3278C15.5829 10.6192 14.6523 11.5507 14.3577 13.1372C14.065 11.5519 13.1342 10.6211 11.5553 10.3271C13.1332 10.0335 14.0618 9.10549 14.3574 7.51542Z" fill="white"/>
<path d="M21.7143 11.0918C21.4948 10.0951 20.8982 9.48863 19.8568 9.27805C20.8931 9.06491 21.4958 8.46416 21.7092 7.42276C21.9211 8.45937 22.5237 9.06044 23.5246 9.27965C23.067 9.36976 22.6618 9.55861 22.3301 9.88934C21.9965 10.222 21.8025 10.6269 21.7143 11.0918Z" fill="white"/>
<path d="M22.2458 16.4077C21.8834 15.4829 21.7569 15.3564 20.8835 15.0484C21.6217 14.8844 22.0655 14.4463 22.2333 13.6743C22.4068 14.4371 22.842 14.8838 23.57 15.0548C23.236 15.1346 22.9382 15.2756 22.696 15.5187C22.4557 15.76 22.3167 16.0543 22.2458 16.4077Z" fill="white"/>
</svg>
