<svg width="38" height="38" viewBox="0 0 38 38" fill="none" xmlns="http://www.w3.org/2000/svg">
<path d="M31.7282 6.27173C24.6987 -0.757768 13.3016 -0.757768 6.27212 6.27173C-0.757374 13.3012 -0.757374 24.6983 6.27212 31.7274C13.3016 38.7569 24.6987 38.7569 31.7282 31.7274C38.7573 24.6983 38.7573 13.3012 31.7282 6.27173Z" stroke="#7EAD91" stroke-width="2" stroke-miterlimit="10"/>
<path d="M8.13721 8.13726C2.0721 14.2024 2.0721 24.0361 8.13721 30.1016C14.2023 36.1667 24.0364 36.1667 30.1015 30.1016C36.167 24.0361 36.167 14.2024 30.1015 8.13726C24.0364 2.07215 14.2023 2.07215 8.13721 8.13726Z" fill="#7EAD91"/>
<path d="M27.2712 10.4906C27.3624 10.5236 27.4548 10.5527 27.5446 10.5899C28.1869 10.858 28.4633 11.5298 28.2294 12.2583C27.5856 14.26 26.941 16.2612 26.2964 18.2625C24.9214 22.5319 23.5463 26.8012 22.1712 31.0706C21.9293 31.8214 21.3046 32.2064 20.6075 32.0231C20.1335 31.8985 19.8467 31.5772 19.6937 31.1178C18.9211 28.7906 18.1518 26.4615 17.3615 24.1397C17.2549 23.8264 17.2898 23.6124 17.4804 23.3436C18.9885 21.2132 20.479 19.07 21.9745 16.9303C22.0144 16.8736 22.0531 16.8153 22.0696 16.7225C22.0117 16.7593 21.9534 16.7938 21.897 16.8329C19.678 18.3733 17.4586 19.9125 15.2426 21.4574C15.1137 21.5471 15.0106 21.5613 14.8614 21.5111C12.5434 20.7319 10.2262 19.9493 7.90056 19.1935C7.32844 19.0079 6.91699 18.71 6.75172 18.1183V17.6547C6.91316 17.1152 7.26134 16.79 7.80776 16.6213C9.30093 16.16 10.7849 15.6695 12.2723 15.1906C16.4945 13.8313 20.7175 12.4719 24.9398 11.111C25.564 10.9097 26.1852 10.6977 26.808 10.4906H27.2712Z" fill="white"/>
</svg>
