<svg width="36" height="24" viewBox="0 0 36 24" fill="none" xmlns="http://www.w3.org/2000/svg">
<path d="M21.0257 8.04896V6.43117C21.9597 5.95868 22.9597 5.60439 24.0258 5.36829C25.0922 5.13219 26.1869 5.01414 27.31 5.01414C27.9517 5.01414 28.5679 5.05528 29.1586 5.13755C29.749 5.22011 30.3585 5.33715 30.9871 5.48866V7.06647C30.3808 6.87237 29.7897 6.7381 29.2138 6.66365C28.6376 6.58891 28.003 6.55154 27.31 6.55154C26.1869 6.55154 25.0906 6.67799 24.021 6.93089C22.9512 7.18379 21.9528 7.55648 21.0257 8.04896ZM21.0257 17.5419V15.8572C21.9151 15.385 22.9096 15.0307 24.0093 14.7943C25.109 14.5582 26.2092 14.4402 27.31 14.4402C27.9517 14.4402 28.5679 14.4814 29.1586 14.564C29.749 14.6463 30.3585 14.7632 30.9871 14.9147V16.4925C30.3808 16.2987 29.7897 16.1644 29.2138 16.0897C28.6376 16.0149 28.003 15.9775 27.31 15.9775C26.1869 15.9775 25.0906 16.1136 24.021 16.3856C22.9512 16.6573 21.9528 17.0427 21.0257 17.5419ZM21.0257 12.8289V11.1442C21.9597 10.672 22.9597 10.3177 24.0258 10.0813C25.0922 9.8452 26.1869 9.72715 27.31 9.72715C27.9517 9.72715 28.5679 9.76828 29.1586 9.85056C29.749 9.93312 30.3585 10.0502 30.9871 10.2017V11.7795C30.3808 11.5857 29.7897 11.4514 29.2138 11.3767C28.6376 11.3019 28.003 11.2645 27.31 11.2645C26.1869 11.2645 25.0906 11.4021 24.021 11.6774C22.9512 11.9526 21.9528 12.3364 21.0257 12.8289ZM18.6193 21.4797C20.0278 20.6932 21.449 20.1255 22.883 19.7767C24.3169 19.4279 25.7926 19.2535 27.31 19.2535C28.3529 19.2535 29.2905 19.3181 30.1228 19.4473C30.9551 19.5765 31.6887 19.7482 32.3238 19.9623C32.5914 20.0735 32.8367 20.0567 33.0594 19.9119C33.2822 19.767 33.3936 19.5386 33.3936 19.2266V3.5567C33.3936 3.35594 33.3378 3.17763 33.2263 3.02178C33.115 2.86593 32.9257 2.73223 32.6583 2.6207C31.7024 2.28205 30.8327 2.0503 30.0494 1.92544C29.266 1.80058 28.3529 1.73815 27.31 1.73815C25.7926 1.73815 24.2784 1.96208 22.7674 2.40995C21.2566 2.85781 19.8739 3.52976 18.6193 4.42577V21.4797ZM17.7502 24C16.3374 23.0327 14.8198 22.2895 13.1975 21.7704C11.5753 21.2513 9.9062 20.9917 8.19035 20.9917C7.28564 20.9917 6.39701 21.0674 5.52445 21.219C4.65219 21.3705 3.80267 21.6134 2.97588 21.9477C2.34522 22.1994 1.75309 22.1237 1.19949 21.7204C0.645598 21.3172 0.368652 20.7601 0.368652 20.0492V3.24904C0.368652 2.81885 0.481777 2.41994 0.708027 2.05232C0.934277 1.68471 1.2512 1.42847 1.6588 1.28363C2.68605 0.840107 3.74965 0.515363 4.84961 0.309391C5.94929 0.10313 7.06286 0 8.19035 0C9.89287 0 11.5535 0.245079 13.1723 0.735239C14.7914 1.22569 16.3174 1.93891 17.7502 2.87491C19.183 1.93891 20.709 1.22569 22.3281 0.735239C23.9469 0.245079 25.6075 0 27.31 0C28.4375 0 29.5511 0.10313 30.6508 0.309391C31.7507 0.515363 32.8143 0.840107 33.8416 1.28363C34.2492 1.42847 34.5661 1.68471 34.7924 2.05232C35.0186 2.41994 35.1317 2.81885 35.1317 3.24904V20.0492C35.1317 20.7601 34.8326 21.306 34.2344 21.687C33.6359 22.0679 32.999 22.1325 32.3238 21.8808C31.5196 21.5688 30.6979 21.3425 29.8586 21.202C29.0197 21.0618 28.1701 20.9917 27.31 20.9917C25.5942 20.9917 23.9251 21.2513 22.3029 21.7704C20.6806 22.2895 19.163 23.0327 17.7502 24Z" fill="#8CAB91"/>
</svg>
