<svg width="25" height="18" viewBox="0 0 25 18" fill="none" xmlns="http://www.w3.org/2000/svg">
<path d="M14.4614 6.27223V5.15533C15.1062 4.82913 15.7966 4.58453 16.5326 4.42153C17.2688 4.25853 18.0246 4.17703 18.8 4.17703C19.243 4.17703 19.6684 4.20543 20.0762 4.26223C20.4838 4.31923 20.9046 4.40003 21.3386 4.50463V5.59393C20.92 5.45993 20.5119 5.36723 20.1143 5.31583C19.7165 5.26423 19.2784 5.23843 18.8 5.23843C18.0246 5.23843 17.2677 5.32573 16.5293 5.50033C15.7907 5.67493 15.1014 5.93223 14.4614 6.27223ZM14.4614 12.826V11.6629C15.0754 11.3369 15.762 11.0923 16.5212 10.9291C17.2804 10.7661 18.04 10.6846 18.8 10.6846C19.243 10.6846 19.6684 10.7131 20.0762 10.7701C20.4838 10.8269 20.9046 10.9076 21.3386 11.0122V12.1015C20.92 11.9677 20.5119 11.875 20.1143 11.8234C19.7165 11.7718 19.2784 11.746 18.8 11.746C18.0246 11.746 17.2677 11.8399 16.5293 12.0277C15.7907 12.2153 15.1014 12.4814 14.4614 12.826ZM14.4614 9.57223V8.40913C15.1062 8.08313 15.7966 7.83853 16.5326 7.67533C17.2688 7.51233 18.0246 7.43083 18.8 7.43083C19.243 7.43083 19.6684 7.45923 20.0762 7.51603C20.4838 7.57303 20.9046 7.65383 21.3386 7.75843V8.84773C20.92 8.71393 20.5119 8.62123 20.1143 8.56963C19.7165 8.51803 19.2784 8.49223 18.8 8.49223C18.0246 8.49223 17.2677 8.58723 16.5293 8.77723C15.7907 8.96723 15.1014 9.23223 14.4614 9.57223ZM5.60001 14.0077C6.64761 14.0077 7.66641 14.1281 8.65641 14.3689C9.64641 14.6097 10.6276 15.0016 11.6 15.5446V3.77083C10.7338 3.15223 9.77921 2.68833 8.73621 2.37913C7.69301 2.06993 6.64761 1.91533 5.60001 1.91533C4.88001 1.91533 4.24961 1.95843 3.70881 2.04463C3.16801 2.13083 2.56761 2.29083 1.90761 2.52463C1.72301 2.58623 1.59231 2.67473 1.51551 2.79013C1.43851 2.90533 1.40001 3.03223 1.40001 3.17083V13.9891C1.40001 14.2045 1.47691 14.3622 1.63071 14.4622C1.78451 14.5622 1.95381 14.5738 2.13861 14.497C2.57701 14.3492 3.08351 14.2307 3.65811 14.1415C4.23271 14.0523 4.88001 14.0077 5.60001 14.0077ZM12.8 15.5446C13.7724 15.0016 14.7536 14.6097 15.7436 14.3689C16.7336 14.1281 17.7524 14.0077 18.8 14.0077C19.52 14.0077 20.1673 14.0523 20.7419 14.1415C21.3165 14.2307 21.823 14.3492 22.2614 14.497C22.4462 14.5738 22.6155 14.5622 22.7693 14.4622C22.9231 14.3622 23 14.2045 23 13.9891V3.17083C23 3.03223 22.9615 2.90913 22.8845 2.80153C22.8077 2.69393 22.677 2.60163 22.4924 2.52463C21.8324 2.29083 21.232 2.13083 20.6912 2.04463C20.1504 1.95843 19.52 1.91533 18.8 1.91533C17.7524 1.91533 16.707 2.06993 15.6638 2.37913C14.6208 2.68833 13.6662 3.15223 12.8 3.77083V15.5446ZM12.2 17.2846C11.2246 16.6168 10.1769 16.1037 9.05691 15.7453C7.93691 15.3869 6.78461 15.2077 5.60001 15.2077C4.97541 15.2077 4.36191 15.26 3.75951 15.3646C3.15731 15.4692 2.57081 15.6369 2.00001 15.8677C1.56461 16.0415 1.15581 15.9892 0.773612 15.7108C0.391212 15.4324 0.200012 15.0478 0.200012 14.557V2.95843C0.200012 2.66143 0.278112 2.38603 0.434312 2.13223C0.590512 1.87843 0.809312 1.70153 1.09071 1.60153C1.79531 1.29073 2.52841 1.06533 3.29001 0.925332C4.05161 0.785332 4.82161 0.715332 5.60001 0.715332C6.77541 0.715332 7.92191 0.884532 9.03951 1.22293C10.1573 1.56153 11.2108 2.05393 12.2 2.70013C13.1892 2.05393 14.2427 1.56153 15.3605 1.22293C16.4781 0.884532 17.6246 0.715332 18.8 0.715332C19.5784 0.715332 20.3484 0.785332 21.11 0.925332C21.8716 1.06533 22.6047 1.29073 23.3093 1.60153C23.5907 1.70153 23.8095 1.87843 23.9657 2.13223C24.1219 2.38603 24.2 2.66143 24.2 2.95843V14.557C24.2 15.0478 23.9935 15.4247 23.5805 15.6877C23.1673 15.9507 22.7276 15.9953 22.2614 15.8215C21.7062 15.6061 21.1389 15.4499 20.5595 15.3529C19.9803 15.2561 19.3938 15.2077 18.8 15.2077C17.6154 15.2077 16.4631 15.3869 15.3431 15.7453C14.2231 16.1037 13.1754 16.6168 12.2 17.2846Z" fill="#8CAB91"/>
</svg>
