<svg width="25" height="26" viewBox="0 0 25 26" fill="none" xmlns="http://www.w3.org/2000/svg">
<path d="M8.98866 23.5257V19.8456C8.98864 18.9096 9.75174 18.149 10.6972 18.1427H14.1605C15.1105 18.1427 15.8806 18.9051 15.8806 19.8456V19.8456V23.5371C15.8804 24.3318 16.5211 24.9814 17.3236 25H19.6325C21.9341 25 23.8 23.1528 23.8 20.8742V20.8742V10.4054C23.7877 9.50899 23.3626 8.66722 22.6456 8.11964L14.7493 1.82236C13.3659 0.72588 11.3994 0.72588 10.0161 1.82236L2.15443 8.13107C1.43471 8.67643 1.00886 9.5196 1 10.4168V20.8742C1 23.1528 2.86585 25 5.16749 25H7.47635C8.29883 25 8.96557 24.3399 8.96557 23.5257V23.5257" stroke="#8CAB91" stroke-width="1.5" stroke-linecap="round" stroke-linejoin="round"/>
</svg>
