<svg width="32" height="32" viewBox="0 0 32 32" fill="none" xmlns="http://www.w3.org/2000/svg">
<path d="M6.8481 6.84819C1.79384 11.9024 1.79384 20.0972 6.8481 25.1515C11.9024 30.206 20.0974 30.206 25.1517 25.1515C30.2063 20.0972 30.2063 11.9024 25.1517 6.84819C20.0974 1.79393 11.9024 1.79393 6.8481 6.84819Z" fill="#7EAD91"/>
<path d="M26.6066 5.39352C20.7487 -0.464395 11.2511 -0.464395 5.3932 5.39352C-0.464399 11.2511 -0.464399 20.7487 5.3932 26.6066C11.2511 32.4645 20.7487 32.4645 26.6066 26.6066C32.4645 20.7487 32.4645 11.2511 26.6066 5.39352Z" stroke="#7EAD91" stroke-miterlimit="10"/>
<path d="M24.0999 11.9128C24.0599 12.0381 24.0286 12.1662 23.9794 12.2873C23.7285 12.9037 23.1693 13.2571 22.4411 13.2581C21.0917 13.2603 19.7422 13.2587 18.3934 13.2587C16.6072 13.2587 14.8212 13.26 13.0349 13.2581C12.3016 13.2574 11.7347 12.8928 11.4893 12.2726C11.0921 11.2689 11.783 10.2016 12.8758 10.1313C12.9477 10.1265 13.0196 10.1272 13.0915 10.1272C16.1879 10.1269 19.2846 10.1269 22.381 10.1272C23.3077 10.1272 23.8576 10.5573 24.0807 11.4549C24.0832 11.4648 24.0932 11.4728 24.0999 11.4814V11.9128Z" fill="#FFFDFA"/>
<path d="M24.0998 21.5016C24.0564 21.6371 24.027 21.779 23.9675 21.9074C23.678 22.5309 23.1789 22.8427 22.4967 22.8536C21.9384 22.8629 21.3799 22.8558 20.8213 22.8558C18.2224 22.8558 15.6239 22.8565 13.0247 22.8552C12.2038 22.8549 11.5768 22.3669 11.4094 21.6048C11.2132 20.7104 11.8746 19.8128 12.7873 19.7371C12.8751 19.7294 12.9637 19.7246 13.0522 19.7246C16.1764 19.7243 19.3003 19.724 22.4248 19.7243C23.2032 19.7246 23.7864 20.1164 24.0145 20.7887C24.0461 20.8814 24.0714 20.976 24.0998 21.0699V21.5016Z" fill="#FFFDFA"/>
<path d="M24.0998 16.6905C24.0717 16.7906 24.0483 16.8925 24.0151 16.9906C23.7927 17.6482 23.2095 18.0528 22.4762 18.0531C19.7281 18.0544 16.9803 18.0537 14.2325 18.0534C13.7845 18.0534 13.3359 18.0668 12.8892 18.0483C12.2456 18.0218 11.7714 17.7045 11.5142 17.1171C11.2572 16.5308 11.3435 15.9674 11.7589 15.4744C12.0849 15.0867 12.5166 14.927 13.0218 14.9276C16.1623 14.9311 19.3025 14.9295 22.4429 14.9295C22.4487 14.9295 22.4545 14.9292 22.4596 14.9295C23.3025 14.9318 23.8799 15.3929 24.0723 16.2163C24.0784 16.2425 24.0905 16.2671 24.0998 16.2924V16.6905Z" fill="#FFFDFA"/>
<path d="M10.2351 16.4953C10.2335 17.358 9.53822 18.0524 8.67512 18.0527C7.80852 18.0534 7.10679 17.3465 7.11191 16.479C7.11702 15.6213 7.82162 14.9266 8.68311 14.9305C9.54557 14.9336 10.2371 15.6309 10.2351 16.4953Z" fill="#FFFDFA"/>
<path d="M10.2354 21.285C10.2374 22.1468 9.54618 22.8463 8.68405 22.8549C7.8267 22.8635 7.11028 22.1484 7.11188 21.2859C7.11316 20.428 7.81648 19.7262 8.67446 19.7269C9.53723 19.7275 10.2332 20.4222 10.2354 21.285Z" fill="#FFFDFA"/>
<path d="M10.2351 11.6872C10.238 12.557 9.53531 13.2609 8.66839 13.2558C7.80849 13.251 7.1106 12.549 7.11188 11.6907C7.11284 10.8346 7.81871 10.1284 8.67318 10.1278C9.53276 10.1272 10.2322 10.826 10.2351 11.6872Z" fill="#FFFDFA"/>
</svg>
