<svg width="19" height="17" viewBox="0 0 19 17" fill="none" xmlns="http://www.w3.org/2000/svg">
<path d="M1.60001 15V1V12.2345V10.2058V15ZM2.21551 16C1.75517 16 1.37084 15.8458 1.06251 15.5375C0.754173 15.2292 0.600006 14.8448 0.600006 14.3845V1.6155C0.600006 1.15517 0.754173 0.770833 1.06251 0.4625C1.37084 0.154167 1.75517 0 2.21551 0H14.9845C15.4448 0 15.8292 0.154167 16.1375 0.4625C16.4458 0.770833 16.6 1.15517 16.6 1.6155V9.577H15.6V1.6155C15.6 1.4615 15.5359 1.32042 15.4078 1.19225C15.2796 1.06408 15.1385 1 14.9845 1H2.21551C2.06151 1 1.92042 1.06408 1.79226 1.19225C1.66409 1.32042 1.60001 1.4615 1.60001 1.6155V14.3845C1.60001 14.5385 1.66409 14.6796 1.79226 14.8077C1.92042 14.9359 2.06151 15 2.21551 15H8.56151V16H2.21551ZM13.8538 17L11.1115 14.277L11.825 13.5693L13.8538 15.598L17.9115 11.5405L18.6193 12.2537L13.8538 17ZM4.71551 8.76925C4.93467 8.76925 5.11767 8.69583 5.26451 8.549C5.41117 8.40217 5.48451 8.21917 5.48451 8C5.48451 7.78083 5.41117 7.59783 5.26451 7.451C5.11767 7.30417 4.93467 7.23075 4.71551 7.23075C4.49617 7.23075 4.31309 7.30417 4.16626 7.451C4.01959 7.59783 3.94626 7.78083 3.94626 8C3.94626 8.21917 4.01959 8.40217 4.16626 8.549C4.31309 8.69583 4.49617 8.76925 4.71551 8.76925ZM4.71551 5C4.93467 5 5.11767 4.92658 5.26451 4.77975C5.41117 4.63292 5.48451 4.44992 5.48451 4.23075C5.48451 4.01158 5.41117 3.82858 5.26451 3.68175C5.11767 3.53492 4.93467 3.4615 4.71551 3.4615C4.49617 3.4615 4.31309 3.53492 4.16626 3.68175C4.01959 3.82858 3.94626 4.01158 3.94626 4.23075C3.94626 4.44992 4.01959 4.63292 4.16626 4.77975C4.31309 4.92658 4.49617 5 4.71551 5ZM7.79226 8.5H13.177V7.5H7.79226V8.5ZM7.79226 4.73075H13.177V3.73075H7.79226V4.73075Z" fill="#8CAB91"/>
</svg>
