<svg width="19" height="17" viewBox="0 0 19 17" fill="none" xmlns="http://www.w3.org/2000/svg">
<path d="M2.22451 16C1.75817 16 1.37084 15.8458 1.06251 15.5375C0.754173 15.2292 0.600006 14.8448 0.600006 14.3845V1.6155C0.600006 1.15517 0.754173 0.770833 1.06251 0.4625C1.37084 0.154167 1.75517 0 2.21551 0H14.9845C15.4448 0 15.8292 0.154167 16.1375 0.4625C16.4458 0.770833 16.6 1.15517 16.6 1.6155V9.4885L13.8538 12.2345L11.825 10.2058L7.72876 14.277L9.45201 16H2.22451ZM7.79226 8.5H13.177V7.5H7.79226V8.5ZM7.79226 4.73075H13.177V3.73075H7.79226V4.73075ZM13.8538 17L11.1115 14.277L11.825 13.5693L13.8538 15.598L17.9115 11.5405L18.6193 12.2537L13.8538 17ZM4.71676 8.76925C4.93509 8.76925 5.11767 8.69542 5.26451 8.54775C5.41117 8.40008 5.48451 8.21708 5.48451 7.99875C5.48451 7.78042 5.41067 7.59783 5.26301 7.451C5.11534 7.30417 4.93234 7.23075 4.71401 7.23075C4.49567 7.23075 4.31309 7.30458 4.16626 7.45225C4.01959 7.59992 3.94626 7.78292 3.94626 8.00125C3.94626 8.21958 4.02009 8.40217 4.16776 8.549C4.31542 8.69583 4.49842 8.76925 4.71676 8.76925ZM4.71676 5C4.93509 5 5.11767 4.92617 5.26451 4.7785C5.41117 4.63083 5.48451 4.44783 5.48451 4.2295C5.48451 4.01117 5.41067 3.82858 5.26301 3.68175C5.11534 3.53492 4.93234 3.4615 4.71401 3.4615C4.49567 3.4615 4.31309 3.53533 4.16626 3.683C4.01959 3.83067 3.94626 4.01367 3.94626 4.232C3.94626 4.45033 4.02009 4.63292 4.16776 4.77975C4.31542 4.92658 4.49842 5 4.71676 5Z" fill="#8CAB91"/>
</svg>
