<svg width="26" height="26" viewBox="0 0 26 26" fill="none" xmlns="http://www.w3.org/2000/svg">
<path d="M20.3218 20.3215C24.3652 16.2783 24.3652 9.72225 20.3218 5.67884C16.2784 1.63518 9.72263 1.63518 5.67923 5.67884C1.63557 9.72225 1.63557 16.2783 5.67923 20.3215C9.72263 24.3649 16.2784 24.3649 20.3218 20.3215Z" fill="#7EAD91"/>
<path d="M4.51475 21.4853C9.20108 26.1716 16.7991 26.1716 21.4854 21.4853C26.1715 16.7992 26.1715 9.20114 21.4854 4.51481C16.7991 -0.171518 9.20108 -0.171518 4.51475 4.51481C-0.171583 9.20114 -0.171583 16.7992 4.51475 21.4853Z" stroke="#7EAD91" stroke-miterlimit="10"/>
<path d="M12.4514 6.52838V18.3745M18.3745 12.4515H6.52832" stroke="white" stroke-width="1.5" stroke-linecap="round" stroke-linejoin="round"/>
</svg>
