<svg width="25" height="24" viewBox="0 0 25 24" fill="none" xmlns="http://www.w3.org/2000/svg">
<path d="M7.90375 18V17H15.1578C16.1949 17 17.0786 16.6442 17.8087 15.9327C18.5387 15.2213 18.9038 14.3527 18.9038 13.327C18.9038 12.3013 18.5387 11.4359 17.8087 10.7307C17.0786 10.0256 16.1949 9.673 15.1578 9.673H7.4155L10.3808 12.6385L9.673 13.3463L5.5 9.173L9.673 5L10.3808 5.70775L7.4155 8.673H15.1578C16.4668 8.673 17.585 9.12433 18.5125 10.027C19.44 10.9295 19.9038 12.0295 19.9038 13.327C19.9038 14.6243 19.44 15.7275 18.5125 16.6365C17.585 17.5455 16.4668 18 15.1578 18H7.90375Z" fill="#5F6368"/>
</svg>
