<svg width="109" height="11" viewBox="0 0 109 11" fill="none" xmlns="http://www.w3.org/2000/svg">
<path d="M51.7725 1.02113C51.7185 1.14509 50.6381 2.13683 49.3597 3.25253C48.0453 4.36823 47.037 5.48394 47.037 5.77319C47.037 6.10377 48.1533 7.2608 49.6298 8.54179L52.2226 10.7732L53.555 9.65749L54.8875 8.54179L56.1118 9.69881C56.9941 10.4839 57.4623 10.7319 57.7684 10.4839C58.0024 10.3186 58.2365 10.112 58.2905 10.112C58.3445 10.0707 58.5786 9.82278 58.8307 9.57485C59.0828 9.28559 60.0191 8.45914 60.9013 7.67402C61.8016 6.93022 62.5218 6.06245 62.5218 5.77319C62.5218 5.48394 61.3695 4.24427 59.947 3.0046L57.3722 0.773193L56.1118 1.84757L54.8514 2.96328L53.555 1.8889C52.2406 0.814516 51.9345 0.649226 51.7725 1.02113ZM53.2489 2.83931L54.0592 3.62443L53.411 4.24427C53.0509 4.57485 52.6007 4.98807 52.3847 5.11204C51.8805 5.48394 51.8805 6.06245 52.3847 6.43435C52.6007 6.55832 53.0509 6.97154 53.411 7.30212L54.0592 7.92195L53.1589 8.7484L52.2766 9.53352L50.152 7.75666C48.9816 6.76493 48.0273 5.89716 48.0273 5.77319C48.0273 5.52526 51.9885 2.09551 52.2586 2.09551C52.3667 2.09551 52.7988 2.42609 53.2489 2.83931ZM59.4969 3.78972C60.6133 4.78146 61.5315 5.64923 61.5315 5.77319C61.5315 5.89716 60.5952 6.76493 59.4429 7.75666L57.3722 9.53352L56.4359 8.70708L55.4996 7.92195L56.0398 7.46741C57.2642 6.39303 57.5703 6.06245 57.5703 5.77319C57.5703 5.6079 57.1202 5.02939 56.562 4.53352L55.5537 3.58311L56.3279 2.83931C56.76 2.46741 57.1922 2.13683 57.2822 2.09551C57.3902 2.05418 58.3806 2.83931 59.4969 3.78972Z" fill="white"/>
<path d="M44.1212 3.54167L43.6171 4.74001L43.221 3.7896C42.6988 2.59125 42.0686 2.63258 41.5644 3.87225C41.1683 4.86398 41.1503 4.86398 40.8082 4.07886C40.3761 3.08712 39.7099 3.08712 39.2957 4.12018C39.0256 4.82266 38.9536 4.82266 38.7196 4.32679C38.3414 3.4177 37.6392 3.58299 37.3331 4.61605C37.081 5.40117 37.045 5.40117 36.937 4.82266C36.7929 3.91357 35.8567 3.91357 35.6406 4.78134C35.4965 5.40117 35.4605 5.40117 35.3705 4.78134C35.2265 3.95489 34.8123 3.91357 34.4522 4.78134C34.2361 5.2772 34.2181 5.60778 34.3442 6.22762C34.5602 7.09539 35.3525 7.302 35.4785 6.47555C35.5326 6.1863 35.5866 6.26894 35.5866 6.68216C35.6046 7.71522 36.7749 7.71522 36.937 6.72349C37.045 6.10365 37.081 6.14497 37.3151 6.88877C37.6932 8.08712 38.2334 8.29373 38.5935 7.38464C38.8996 6.59952 38.9176 6.59952 39.2417 7.42596C39.6739 8.50035 40.5741 8.50035 40.8622 7.46729C41.0783 6.68216 41.0963 6.68216 41.4924 7.6739C42.0326 9.03754 42.8428 8.99621 43.329 7.59125C43.5451 6.97142 43.7071 6.68216 43.7071 6.88877C43.7071 7.83919 44.4634 9.07886 45.0395 9.07886C46.7501 9.07886 46.8941 3.37638 45.2016 2.63258C44.7154 2.42596 44.5354 2.59125 44.1212 3.54167Z" fill="white"/>
<path d="M63.8194 3.29378C63.2252 4.36816 63.0811 5.89709 63.4053 7.38469C63.8734 9.40948 65.0438 9.78139 65.638 8.04585C66.0341 6.88882 66.2141 6.72353 66.2141 7.5913C66.2141 9.03758 67.6726 9.07891 68.1587 7.63263C68.5008 6.64089 68.5189 6.64089 68.825 7.42601C69.2391 8.50039 70.0313 8.45907 70.4455 7.42601C70.7335 6.68221 70.8056 6.64089 70.9316 7.2194C71.1837 8.16982 72.084 8.00453 72.4081 6.93015C72.6421 6.18634 72.6962 6.14502 72.6962 6.72353C72.6962 7.26072 72.8582 7.42601 73.3084 7.42601C73.6505 7.42601 73.9566 7.2194 73.9926 6.97147C74.0466 6.59957 74.1546 6.59957 74.4247 6.93015C75.1629 7.83924 75.7571 5.7318 75.1089 4.49213C74.8748 4.03758 74.7668 4.07891 74.4427 4.49213C74.1726 4.90535 74.0466 4.94668 73.9926 4.57477C73.8845 3.87229 72.8762 3.99626 72.7502 4.74006C72.6602 5.27725 72.6061 5.27725 72.3901 4.53345C72.084 3.54172 71.2197 3.41775 70.8956 4.32684C70.6975 4.90535 70.6435 4.86403 70.4094 4.12023C70.0853 3.04585 69.2571 3.04585 68.843 4.07891C68.5369 4.82271 68.5189 4.82271 68.1047 3.87229C67.5646 2.63263 66.9524 2.5913 66.3942 3.78965C66.1061 4.40948 65.944 4.53345 65.89 4.20287C65.818 3.62436 64.9177 2.46734 64.5396 2.46734C64.3956 2.46734 64.0715 2.83924 63.8194 3.29378Z" fill="white"/>
<path d="M1.08747 5.23601C0.961435 5.31865 0.853401 5.69056 0.853401 6.02113C0.853401 6.517 3.19413 6.59965 17.3826 6.517C31.9131 6.39303 33.8938 6.31039 33.8938 5.7732C33.8938 5.23601 31.9492 5.15337 17.5987 5.07072C8.63184 5.0294 1.19551 5.11204 1.08747 5.23601Z" fill="white"/>
<path d="M76.0636 5.23603C75.8835 5.36 75.7755 5.64925 75.8115 5.89719C75.8655 6.26909 80.0068 6.43438 92.3947 6.51702C108.06 6.59967 108.906 6.55834 108.852 5.89719C108.798 5.19471 107.88 5.15338 92.5927 5.11206C83.6799 5.07074 76.2436 5.11206 76.0636 5.23603Z" fill="white"/>
</svg>
