<svg width="107" height="43" viewBox="0 0 107 43" fill="none" xmlns="http://www.w3.org/2000/svg">
<path d="M52.2567 16.2307C52.1679 16.3326 50.8392 16.9534 49.2844 17.6328C47.6952 18.3014 46.398 19.062 46.3109 19.3379C46.2115 19.6531 46.928 21.0924 47.9507 22.7582L49.752 25.6663L51.3584 25.0032L52.9647 24.3401L53.7843 25.8118C54.3895 26.826 54.7613 27.2033 55.1278 27.059C55.4008 26.9718 55.6862 26.8451 55.7377 26.8614C55.8016 26.8382 56.0995 26.6722 56.4145 26.5116C56.7419 26.3116 57.8834 25.8051 58.961 25.3218C60.0434 24.8833 60.9913 24.2725 61.0784 23.9966C61.1654 23.7207 60.4394 22.1918 59.4558 20.5816L57.6716 17.679L56.1464 18.3244L54.6087 19.0092L53.6956 17.5945C52.7653 16.1745 52.5231 15.9248 52.2567 16.2307ZM53.1178 18.4088L53.6543 19.4013L52.8496 19.7974C52.4067 20.0044 51.8531 20.263 51.6098 20.3162C51.0171 20.5192 50.843 21.0709 51.2119 21.5773C51.3807 21.7605 51.6857 22.29 51.9296 22.7136L52.3613 23.4997L51.2541 24.017L50.1765 24.5004L48.6848 22.1666C47.8671 20.8687 47.2181 19.754 47.2554 19.6358C47.33 19.3994 52.1395 17.3203 52.3971 17.4015C52.5001 17.434 52.8128 17.8793 53.1178 18.4088ZM58.7903 21.1949C59.5566 22.4766 60.1712 23.5804 60.1339 23.6987C60.0966 23.8169 58.9426 24.3628 57.5453 24.9618L55.036 26.0334L54.3917 24.9636L53.735 23.9331L54.3869 23.6622C55.8778 23.0059 56.2692 22.7827 56.3562 22.5069C56.4059 22.3493 56.1507 21.6621 55.7676 21.0213L55.0919 19.8116L56.0541 19.3352C56.5781 19.1105 57.0896 18.9252 57.1879 18.9129C57.3034 18.906 58.0116 19.9527 58.7903 21.1949Z" fill="white"/>
<path d="M44.2016 16.3325L43.3602 17.3236L43.2684 16.2981C43.1309 14.9981 42.5175 14.848 41.6638 15.8785C40.9876 16.7051 40.9704 16.6997 40.8804 15.848C40.7667 14.7722 40.1313 14.5718 39.4256 15.4324C38.9566 16.0211 38.888 15.9994 38.8139 15.4561C38.7268 14.4754 38.0074 14.4217 37.4047 15.3148C36.9281 15.9877 36.8937 15.9769 36.9648 15.3927C37.1009 14.4824 36.208 14.2007 35.7408 14.9632C35.417 15.511 35.3827 15.5002 35.4833 14.882C35.5945 14.0505 35.212 13.8865 34.6075 14.6057C34.2523 15.0136 34.1357 15.3234 34.0694 15.9525C34.0144 16.845 34.7077 17.2804 35.0766 16.5302C35.2151 16.2706 35.2418 16.3657 35.1175 16.7597C34.8238 17.7504 35.94 18.1025 36.3929 17.2054C36.6824 16.6468 36.7043 16.6971 36.7037 17.4768C36.7038 18.7334 37.1568 19.093 37.7737 18.3343C38.3019 17.6777 38.319 17.6831 38.3795 18.5688C38.4684 19.7234 39.3269 19.9942 39.9125 19.0957C40.3547 18.412 40.3719 18.4174 40.4513 19.4824C40.5562 20.9453 41.3413 21.1497 42.2277 19.9561C42.6202 19.43 42.8618 19.2029 42.7996 19.3999C42.5137 20.3063 42.8619 21.7161 43.4114 21.8894C45.0427 22.404 46.8957 17.0091 45.5053 15.7905C45.1039 15.4472 44.8824 15.5507 44.2016 16.3325Z" fill="white"/>
<path d="M63.0617 22.0224C62.1718 22.8682 61.5744 24.283 61.436 25.7992C61.2733 27.871 62.2775 28.5778 63.3663 27.1014C64.0922 26.1172 64.3136 26.0137 64.0526 26.8413C63.6174 28.2205 64.9959 28.6987 65.8946 27.4657C66.5193 26.6229 66.5364 26.6283 66.5921 27.4691C66.6638 28.6183 67.4318 28.8173 68.1376 27.9567C68.6361 27.334 68.7172 27.3163 68.6634 27.9059C68.6178 28.8881 69.5261 29.0013 70.1584 28.0742C70.6054 27.4353 70.6694 27.4122 70.4953 27.9639C70.3337 28.4762 70.4385 28.6826 70.8678 28.818C71.1941 28.9209 71.5482 28.816 71.6571 28.5904C71.8205 28.2519 71.9235 28.2844 72.0816 28.681C72.5122 29.77 73.7129 27.939 73.4677 26.5618C73.3812 26.0579 73.2657 26.0648 72.8323 26.3613C72.4504 26.6741 72.3178 26.6756 72.3782 26.3047C72.4865 25.6023 71.4876 25.4171 71.1436 26.0886C70.8961 26.5738 70.8446 26.5575 70.8623 25.7832C70.8688 24.7453 70.0819 24.3671 69.4993 25.1365C69.1363 25.6286 69.0972 25.573 69.0978 24.7932C69.112 23.6711 68.3221 23.4219 67.6163 24.2825C67.1006 24.8998 67.0835 24.8943 66.9745 23.8634C66.8323 22.5186 66.2609 22.295 65.368 23.2699C64.9068 23.7744 64.715 23.8438 64.7629 23.5123C64.8683 22.9389 64.3578 21.5647 63.9972 21.4509C63.8598 21.4076 63.4389 21.6647 63.0617 22.0224Z" fill="white"/>
<path d="M2.65188 5.00111C2.50681 5.042 2.29189 5.36417 2.19244 5.67943C2.04325 6.15233 4.25067 6.93537 17.8066 11.1253C31.7013 15.3787 33.615 15.8958 33.7766 15.3835C33.9382 14.8712 32.1086 14.2073 18.4478 9.811C9.90886 7.07385 2.7922 4.91539 2.65188 5.00111Z" fill="white"/>
<path d="M74.1543 27.5583C73.9452 27.6224 73.7552 27.8657 73.7149 28.113C73.6546 28.4839 77.5543 29.8875 89.3433 33.6933C104.258 38.4851 105.077 38.7003 105.224 38.0535C105.384 37.3673 104.521 37.0516 89.9549 32.4131C81.4675 29.6922 74.3633 27.4943 74.1543 27.5583Z" fill="white"/>
</svg>
