<svg width="90" height="12" viewBox="0 0 90 12" fill="none" xmlns="http://www.w3.org/2000/svg">
<path d="M46.2276 5.64912C46.2276 6.37639 45.6381 6.96631 44.9108 6.96631C44.1835 6.96631 43.5936 6.37639 43.5936 5.64912C43.5936 4.92185 44.1835 4.33238 44.9108 4.33238C45.6381 4.33238 46.2276 4.92185 46.2276 5.64912Z" fill="#364636"/>
<path d="M48.195 5.57715L89.0094 5.57715" stroke="#364636" stroke-width="0.4" stroke-miterlimit="10" stroke-linecap="round" stroke-linejoin="round"/>
<path d="M84.607 5.72508C86.2435 5.50938 87.8196 4.34889 87.8759 2.56247C87.9263 0.953919 86.1692 -0.406048 84.6147 0.111822C83.3749 0.525217 82.6738 2.42197 84.0693 3.0943C85.092 3.5865 86.542 3.01279 86.1467 1.74019C86.0823 1.53304 85.7562 1.6213 85.8211 1.8298C86.2863 3.32847 83.1709 3.32126 83.673 1.54249C84.0549 0.19198 85.6909 0.105965 86.6618 0.830082C88.8648 2.47421 86.6249 5.1212 84.607 5.38734C84.3945 5.41526 84.3918 5.75345 84.607 5.72508Z" fill="#364636"/>
<path d="M84.607 5.74617C86.6249 6.01231 88.8648 8.65929 86.6618 10.3034C85.6909 11.0275 84.0549 10.942 83.673 9.59146C83.1709 7.81224 86.2862 7.80549 85.821 9.30371C85.7562 9.51175 86.0822 9.60092 86.1466 9.39332C86.5307 8.15719 85.1852 7.59159 84.1594 7.99958C82.6494 8.60076 83.3474 10.5867 84.6146 11.0217C86.1092 11.5346 87.8371 10.2525 87.8723 8.71198C87.9141 6.86431 86.2871 5.62998 84.607 5.40843C84.3922 5.38006 84.394 5.71825 84.607 5.74617Z" fill="#364636"/>
<path d="M47.3118 5.58523C47.3118 5.09753 47.7072 4.70215 48.1949 4.70215C48.6826 4.70215 49.078 5.09753 49.078 5.58523C49.078 6.07293 48.6826 6.46831 48.1949 6.46831C47.7072 6.46831 47.3118 6.07293 47.3118 5.58523Z" fill="#364636"/>
<path d="M41.5707 5.65186L0.990638 5.65186" stroke="#364636" stroke-width="0.4" stroke-miterlimit="10" stroke-linecap="round" stroke-linejoin="round"/>
<path d="M5.3939 5.50462C3.75743 5.72032 2.1813 6.8808 2.12501 8.66723C2.07457 10.2753 3.83173 11.6353 5.38624 11.1174C6.62597 10.7045 7.32712 8.80727 5.93158 8.13539C4.9089 7.64319 3.45886 8.21691 3.85424 9.48951C3.91864 9.69621 4.24467 9.60795 4.17983 9.39945C3.71419 7.90123 6.82997 7.90844 6.32741 9.68721C5.94599 11.0377 4.30997 11.1237 3.33908 10.3992C1.13611 8.75549 3.37601 6.10805 5.3939 5.84236C5.60645 5.81399 5.60915 5.47625 5.3939 5.50462Z" fill="#364636"/>
<path d="M5.39387 5.48289C3.37598 5.2172 1.13608 2.56976 3.33905 0.925634C4.30994 0.201517 5.94596 0.287532 6.32738 1.63805C6.82994 3.41682 3.71416 3.42402 4.1798 1.9258C4.24464 1.71775 3.91861 1.62859 3.85421 1.83574C3.47009 3.07232 4.81565 3.63792 5.84148 3.22948C7.35141 2.62875 6.65341 0.642384 5.38621 0.207824C3.89159 -0.305542 2.16371 0.976519 2.12859 2.51752C2.08671 4.36474 3.71372 5.59952 5.39387 5.82063C5.60867 5.849 5.60687 5.51126 5.39387 5.48289Z" fill="#364636"/>
<path d="M40.6876 5.65213C40.6876 5.16443 41.0829 4.76904 41.5706 4.76904C42.0584 4.76904 42.4539 5.16443 42.4539 5.65213C42.4539 6.14028 42.0584 6.53566 41.5706 6.53566C41.0829 6.53566 40.6876 6.14028 40.6876 5.65213Z" fill="#364636"/>
</svg>
