<svg width="135" height="198" viewBox="0 0 135 198" fill="none" xmlns="http://www.w3.org/2000/svg">
<path d="M6.44713 197.861C6.44713 197.861 4.1258 197.798 2.33644 197.564C2.26455 197.553 2.19286 197.542 2.12141 197.529C0.731785 197.277 0 195.867 0 194.454V2.56938C0 1.35646 0.818099 0.260503 2.02814 0.176982C3.84168 0.0367327 6.44713 0 6.44713 0V197.861Z" fill="#897C6B"/>
<path d="M135.001 191.863C135.001 195.176 132.315 197.863 129.001 197.863H6.44531V0.0148926H70.6808H129.001C132.315 0.0148926 135.001 2.70118 135.001 6.01489V191.863Z" fill="#E2D3C0"/>
<path d="M6.98068 0.0253906H6.44922V197.863H6.98068V0.0253906Z" fill="#897C6B"/>
<path d="M6.45725 0.0253906H5.92578V197.863H6.45725V0.0253906Z" fill="#897C6B"/>
</svg>
