<svg width="110" height="147" viewBox="0 0 110 147" fill="none" xmlns="http://www.w3.org/2000/svg">
<path d="M5.25322 146.998C5.25322 146.998 3.36176 146.951 1.90377 146.778C0.674508 146.615 0 145.387 0 144.147V2.05272C0 1.07152 0.673301 0.193115 1.65256 0.131486C3.13026 0.0272901 5.25322 0 5.25322 0V146.998Z" fill="#999999"/>
<path d="M110 141C110 144.313 107.314 147 104 147H5.25098V0.0109863H57.591H104C107.314 0.0109863 110 2.69728 110 6.01099V141Z" fill="#F3EADE"/>
<path d="M5.6889 0.0189819H5.25586V147H5.6889V0.0189819Z" fill="#EAE4E1"/>
<path d="M5.26215 0.0189819H4.8291V147H5.26215V0.0189819Z" fill="#E5D1BE"/>
</svg>
