<svg width="110" height="147" viewBox="0 0 110 147" fill="none" xmlns="http://www.w3.org/2000/svg">
<path d="M5.25322 146.998C5.25322 146.998 3.36176 146.951 1.90377 146.778C0.674509 146.615 0 145.387 0 144.147V2.05272C0 1.07152 0.673301 0.193115 1.65256 0.131486C3.13026 0.0272901 5.25322 0 5.25322 0V146.998Z" fill="#168AC5"/>
<path d="M110 141C110 144.313 107.314 147 104 147H5.25098V0.0109863H57.591H104C107.314 0.0109863 110 2.69728 110 6.01099V141Z" fill="#168AC5"/>
<path d="M6.25586 145.5V1.51904C6.25586 0.690616 5.58429 0.019043 4.75586 0.019043C3.92743 0.019043 3.25586 0.690615 3.25586 1.51904V145.5C3.25586 146.329 3.92743 147 4.75586 147C5.58429 147 6.25586 146.329 6.25586 145.5Z" fill="#333333" fill-opacity="0.3"/>
</svg>
