<svg width="26" height="25" viewBox="0 0 26 25" fill="none" xmlns="http://www.w3.org/2000/svg">
<path d="M20.3213 19.8214C24.3648 15.7783 24.3648 9.22221 20.3213 5.17879C16.2779 1.13512 9.7221 1.13512 5.67869 5.17879C1.63502 9.22221 1.63502 15.7783 5.67869 19.8214C9.7221 23.8649 16.2779 23.8649 20.3213 19.8214Z" fill="#7EAD91"/>
<path d="M4.51476 20.9852C9.2011 25.6716 16.7992 25.6716 21.4855 20.9852C26.1716 16.2992 26.1716 8.7011 21.4855 4.01476C16.7992 -0.671585 9.2011 -0.671585 4.51476 4.01476C-0.171586 8.7011 -0.171586 16.2992 4.51476 20.9852Z" stroke="#7EAD91" stroke-miterlimit="10"/>
<path d="M15.3449 7.56857C16.2465 8.47174 17.1431 9.36979 18.0756 10.3036C18.0426 10.3228 17.9905 10.3404 17.9555 10.3752C16.3692 11.9591 14.7835 13.5431 13.2011 15.1308C12.9805 15.3522 12.7302 15.4857 12.4148 15.5105C11.8739 15.5537 11.3345 15.6155 10.7933 15.66C10.2961 15.7009 9.92923 15.3295 9.97166 14.8351C10.0197 14.2757 10.0706 13.7169 10.1225 13.1578C10.1468 12.8971 10.2483 12.6711 10.4351 12.484C12.0474 10.8676 13.659 9.25092 15.271 7.63453C15.2966 7.60896 15.3247 7.58647 15.3449 7.56857Z" fill="white"/>
<path d="M7.01722 12.8532C7.01722 11.6834 7.01415 10.5138 7.01824 9.34428C7.02207 8.2297 7.75703 7.34877 8.84988 7.1435C8.97591 7.11972 9.10603 7.10899 9.23436 7.10873C10.353 7.10617 11.4717 7.10643 12.5906 7.10771C12.9232 7.10796 13.1408 7.3498 13.0784 7.64276C13.0354 7.8442 12.8693 7.98557 12.6543 7.98915C12.3552 7.99426 12.0558 7.99119 11.7565 7.99119C10.9277 7.99145 10.0992 7.98838 9.27041 7.99221C8.58018 7.99554 8.0459 8.43063 7.92243 9.08532C7.90377 9.18399 7.90223 9.28676 7.90198 9.38774C7.90096 11.7041 7.90044 14.0201 7.90172 16.3365C7.90223 17.0267 8.30537 17.5505 8.94728 17.6921C9.06743 17.7187 9.19397 17.7246 9.31744 17.7248C11.6146 17.7264 13.912 17.7264 16.2094 17.7259C16.9145 17.7256 17.4403 17.3314 17.5873 16.6877C17.6165 16.5589 17.6231 16.4229 17.6236 16.2902C17.6264 15.1989 17.6244 14.1076 17.6259 13.0163C17.6262 12.7128 17.8263 12.5162 18.105 12.5377C18.3402 12.5559 18.5063 12.7478 18.5081 13.0137C18.5112 13.4232 18.5091 13.8333 18.5091 14.2431C18.5091 14.943 18.5112 15.6429 18.5086 16.3429C18.5048 17.5001 17.7409 18.3972 16.6018 18.581C16.4891 18.5994 16.3728 18.6004 16.2577 18.6007C13.9284 18.6017 11.5988 18.6032 9.26938 18.6007C8.11544 18.5996 7.2248 17.8414 7.0392 16.7059C7.01798 16.5752 7.01824 16.4397 7.01824 16.3068C7.01645 15.1554 7.01722 14.0043 7.01722 12.8532Z" fill="white"/>
<path d="M18.6907 9.61084C17.7975 8.71713 16.9002 7.81933 15.9924 6.91105C16.3335 6.59636 16.6126 6.19092 17.0917 6.03345C17.7067 5.83099 18.264 5.93861 18.7482 6.3714C18.9261 6.53067 19.091 6.70552 19.2521 6.88242C19.8293 7.51513 19.8331 8.43056 19.2559 9.06275C19.0795 9.25602 18.8801 9.42831 18.6907 9.61084Z" fill="white"/>
</svg>
