<svg width="17" height="17" viewBox="0 0 17 17" fill="none" xmlns="http://www.w3.org/2000/svg">
<path d="M14.7828 4.65469C13.6518 3.52305 12.5157 2.38623 11.3662 1.23614C11.798 0.837672 12.1515 0.32429 12.7581 0.124894C13.5369 -0.131474 14.2426 0.0048027 14.8557 0.55282C15.0809 0.754482 15.2897 0.97589 15.4937 1.19989C16.2246 2.00103 16.2294 3.16019 15.4985 3.96069C15.2752 4.2054 15.0227 4.42357 14.7828 4.65469Z" fill="#364636"/>
<path d="M0.00139837 8.76028C0.00139837 7.27905 -0.00248598 5.79814 0.00269315 4.31723C0.00754859 2.90591 0.938174 1.79046 2.32197 1.53053C2.48156 1.50043 2.64632 1.48683 2.80881 1.48651C4.22531 1.48327 5.6418 1.48359 7.05862 1.48521C7.47974 1.48553 7.75521 1.79175 7.67623 2.16271C7.62185 2.41778 7.41144 2.59678 7.13922 2.60132C6.76049 2.60779 6.38144 2.6039 6.0024 2.6039C4.95297 2.60423 3.90388 2.60034 2.85445 2.6052C1.98047 2.60941 1.30395 3.16034 1.14761 3.98932C1.12398 4.11427 1.12203 4.2444 1.12171 4.37226C1.12041 7.30526 1.11977 10.2379 1.12139 13.171C1.12203 14.0449 1.6325 14.7082 2.4453 14.8875C2.59744 14.9212 2.75767 14.9286 2.91401 14.9289C5.82274 14.9309 8.7318 14.9309 11.6409 14.9302C12.5336 14.9299 13.1994 14.4308 13.3856 13.6157C13.4225 13.4526 13.4309 13.2804 13.4315 13.1124C13.4351 11.7305 13.4325 10.3487 13.4345 8.9668C13.4348 8.58257 13.6882 8.33365 14.0411 8.36084C14.3389 8.38382 14.5493 8.62691 14.5515 8.96356C14.5554 9.48212 14.5528 10.0013 14.5528 10.5202C14.5528 11.4065 14.5554 12.2928 14.5522 13.179C14.5473 14.6444 13.5801 15.7803 12.1377 16.013C11.995 16.0363 11.8477 16.0376 11.702 16.0379C8.75251 16.0392 5.80268 16.0412 2.85316 16.0379C1.392 16.0366 0.264239 15.0766 0.0292362 13.6387C0.00236946 13.4733 0.00269315 13.3017 0.00269315 13.1334C0.000427278 11.6755 0.00139837 10.2179 0.00139837 8.76028Z" fill="#364636"/>
<path d="M10.5463 2.06899C11.6879 3.21261 12.8231 4.34975 14.004 5.53221C13.9622 5.55649 13.8962 5.57883 13.8519 5.62285C11.8433 7.62847 9.83544 9.63409 7.83176 11.6446C7.55241 11.9249 7.23551 12.0939 6.83607 12.1253C6.15113 12.18 5.46813 12.2583 4.78287 12.3146C4.15328 12.3664 3.68878 11.8961 3.74251 11.27C3.80337 10.5618 3.86778 9.8542 3.93349 9.14628C3.96424 8.81611 4.09275 8.52996 4.32937 8.29302C6.37092 6.24629 8.4115 4.19923 10.4527 2.1525C10.4851 2.12014 10.5207 2.09165 10.5463 2.06899Z" fill="#364636"/>
</svg>
