<svg width="21" height="20" viewBox="0 0 21 20" fill="none" xmlns="http://www.w3.org/2000/svg">
<path d="M17.5833 4.09189L16.4083 2.91689C15.1917 1.70023 13.2083 1.70023 11.9917 2.91689L3.65001 11.2502C3.23334 11.6669 2.95001 12.1836 2.81668 12.7502L2.00834 16.2336C1.85834 16.8669 2.05001 17.5252 2.50834 17.9836C2.86668 18.3419 3.34168 18.5336 3.82501 18.5336C3.96668 18.5336 4.10834 18.5169 4.25001 18.4836L7.73334 17.6752C8.30001 17.5419 8.82501 17.2586 9.23334 16.8419L17.5667 8.50856C18.1583 7.91689 18.4833 7.13356 18.4833 6.30023C18.4833 5.46689 18.1583 4.68356 17.5667 4.09189H17.5833ZM8.36668 15.9586C8.11668 16.2086 7.80834 16.3836 7.46668 16.4586L3.98334 17.2669C3.67501 17.3336 3.47501 17.1752 3.40001 17.1002C3.32501 17.0252 3.15834 16.8252 3.23334 16.5169L4.04168 13.0336C4.12501 12.6919 4.29168 12.3836 4.54168 12.1336L11.25 5.41689L15.0833 9.25023L8.37501 15.9586H8.36668ZM16.7 7.62523L15.9667 8.35856L12.1333 4.52523L12.8667 3.79189C13.2333 3.42523 13.7083 3.24189 14.1917 3.24189C14.675 3.24189 15.15 3.42523 15.5167 3.79189L16.6917 4.96689C17.0417 5.31689 17.2417 5.7919 17.2417 6.29189C17.2417 6.7919 17.05 7.2669 16.6917 7.6169L16.7 7.62523Z" fill="#364636"/>
</svg>
