<svg width="20" height="18" viewBox="0 0 20 18" fill="none" xmlns="http://www.w3.org/2000/svg">
<path d="M18.4375 9.375H16.75V4.5C16.75 3.88124 16.2438 3.375 15.625 3.375H11.29C11.4212 3.15374 11.5 2.89874 11.5 2.625C11.5 1.9275 11.02 1.34624 10.375 1.1775V0.75C10.375 0.543754 10.2062 0.375 10 0.375C9.79375 0.375 9.625 0.543754 9.625 0.75V1.1775C8.98001 1.34623 8.5 1.9275 8.5 2.625C8.5 2.89874 8.57876 3.15374 8.71 3.375H4.375C3.75624 3.375 3.25 3.88124 3.25 4.5V9.375H1.5625C1.045 9.375 0.625 9.795 0.625 10.3125C0.625 11.0362 1.21375 11.625 1.9375 11.625H2.55626L2.65001 12.1875C2.74376 12.7313 3.20875 13.125 3.75999 13.125H8.875V15.375H7.75C7.13124 15.375 6.625 15.8812 6.625 16.5V17.25C6.625 17.4562 6.79375 17.625 7 17.625H8.5C8.70625 17.625 8.875 17.4562 8.875 17.25C8.875 17.0438 8.70625 16.875 8.5 16.875H7.375V16.5C7.375 16.2938 7.54375 16.125 7.75 16.125H12.25C12.4562 16.125 12.625 16.2938 12.625 16.5V16.875H11.5C11.2938 16.875 11.125 17.0438 11.125 17.25C11.125 17.4562 11.2938 17.625 11.5 17.625H13C13.2062 17.625 13.375 17.4562 13.375 17.25V16.5C13.375 15.8812 12.8688 15.375 12.25 15.375H11.125V13.125H16.24C16.7912 13.125 17.2562 12.7313 17.35 12.1875L17.4437 11.625H18.0625C18.7862 11.625 19.375 11.0362 19.375 10.3125C19.375 9.795 18.955 9.375 18.4375 9.375ZM10 1.875C10.4125 1.875 10.75 2.21249 10.75 2.625C10.75 3.03749 10.4125 3.375 10 3.375C9.58751 3.375 9.25 3.03749 9.25 2.625C9.25 2.21249 9.58751 1.875 10 1.875ZM4 4.5C4 4.29375 4.16875 4.125 4.375 4.125H15.625C15.8312 4.125 16 4.29375 16 4.5V5.27625C15.235 5.06998 14.2975 5.1375 13.6487 5.4825C13.0525 5.79749 12.0475 5.79749 11.4512 5.4825C10.6375 5.04749 9.36249 5.04749 8.54875 5.4825C7.95249 5.79749 6.94749 5.79749 6.35125 5.4825C5.70249 5.1375 4.76875 5.06998 4 5.27625V4.5ZM4 6.05623C4.60375 5.83124 5.46624 5.8575 5.99876 6.1425C6.83875 6.59248 8.0575 6.59248 8.90125 6.1425C9.49749 5.82749 10.5025 5.82749 11.0988 6.1425C11.9125 6.57749 13.1875 6.57749 14.0012 6.1425C14.5338 5.8575 15.3963 5.83125 16 6.05623V9.375H4V6.05623ZM10.375 15.375H9.625V13.125H10.375V15.375ZM16.6075 12.0637C16.5775 12.24 16.42 12.375 16.24 12.375H3.76C3.58 12.375 3.42251 12.24 3.3925 12.0637L3.3175 11.625H16.6825L16.6075 12.0637ZM18.0625 10.875H1.9375C1.62624 10.875 1.375 10.6237 1.375 10.3125C1.375 10.2075 1.45749 10.125 1.5625 10.125H18.4375C18.5425 10.125 18.625 10.2075 18.625 10.3125C18.625 10.6237 18.3738 10.875 18.0625 10.875Z" fill="black"/>
<path d="M10 17.625C10.2071 17.625 10.375 17.4571 10.375 17.25C10.375 17.0429 10.2071 16.875 10 16.875C9.79289 16.875 9.625 17.0429 9.625 17.25C9.625 17.4571 9.79289 17.625 10 17.625Z" fill="black"/>
</svg>
