<svg width="18" height="18" viewBox="0 0 18 18" fill="none" xmlns="http://www.w3.org/2000/svg">
<path d="M18 0V6H16.8V2.0793L10.6455 8.1807C11.0409 8.7561 11.3655 9.3638 11.6193 10.0038C11.8731 10.6438 12 11.3092 12 12C12 13.6728 11.4184 15.091 10.2552 16.2546C9.092 17.4182 7.6743 18 6.0021 18C4.3299 18 2.9115 17.4184 1.7469 16.2552C0.5823 15.092 0 13.6743 0 12.0021C0 10.3299 0.5818 8.9115 1.7454 7.7469C2.909 6.5823 4.3272 6 6 6C6.6908 6 7.3523 6.1258 7.9845 6.3774C8.6169 6.6288 9.2185 6.9545 9.7893 7.3545L15.9438 1.2H12V0H18ZM5.9964 7.2C4.6696 7.2 3.5385 7.6689 2.6031 8.6067C1.6677 9.5447 1.2 10.677 1.2 12.0036C1.2 13.3304 1.6689 14.4615 2.6067 15.3969C3.5447 16.3323 4.677 16.8 6.0036 16.8C7.3304 16.8 8.4615 16.3311 9.3969 15.3933C10.3323 14.4553 10.8 13.323 10.8 11.9964C10.8 10.6696 10.3311 9.5385 9.3933 8.6031C8.4553 7.6677 7.323 7.2 5.9964 7.2Z" fill="#0D1C2E"/>
</svg>
