<svg width="20" height="20" viewBox="0 0 20 20" fill="none" xmlns="http://www.w3.org/2000/svg">
<path d="M7.89807 4.35453L5.02623 1.48268C4.75965 1.21611 4.31687 1.22668 4.03725 1.50629L2.03753 3.50602C-0.493908 6.03745 3.32812 10.8721 6.21581 13.7598C9.08619 16.6301 13.9623 20.4937 16.4938 17.9623L18.4935 15.9625C18.7731 15.6829 18.7837 15.2401 18.5171 14.9736L15.6453 12.1017C15.3787 11.8351 14.9359 11.8457 14.6563 12.1253L12.6566 14.125C12.6566 14.125 11.6931 14.1232 8.75939 11.2404C5.8257 8.35765 5.87476 7.34321 5.87476 7.34321L7.87447 5.34351C8.15408 5.06389 8.16465 4.62111 7.89807 4.35453Z" stroke="black" stroke-linecap="round" stroke-linejoin="round"/>
</svg>
